<svg xmlns="http://www.w3.org/2000/svg" xmlns:xlink="http://www.w3.org/1999/xlink" width="40" zoomAndPan="magnify" viewBox="0 0 30 30.000001" height="40" preserveAspectRatio="xMidYMid meet" version="1.0"><defs><clipPath id="4013c0dcbe"><path d="M 0.484375 0 L 15 0 L 15 14.515625 L 0.484375 14.515625 Z M 0.484375 0 " clip-rule="nonzero"/></clipPath></defs><g clip-path="url(#4013c0dcbe)"><path fill="#0fd646" d="M 13.441406 4.277344 L 12.367188 5.351562 C 12.679688 6.039062 12.851562 6.796875 12.851562 7.601562 C 12.851562 10.617188 10.40625 13.0625 7.386719 13.0625 C 4.371094 13.0625 1.925781 10.617188 1.925781 7.601562 C 1.925781 4.582031 4.371094 2.136719 7.386719 2.136719 C 8.140625 2.136719 8.859375 2.289062 9.511719 2.566406 L 10.597656 1.484375 C 9.636719 0.980469 8.546875 0.695312 7.386719 0.695312 C 3.574219 0.695312 0.480469 3.785156 0.480469 7.601562 C 0.480469 11.414062 3.574219 14.503906 7.386719 14.503906 C 11.199219 14.503906 14.292969 11.414062 14.292969 7.601562 C 14.292969 6.394531 13.984375 5.261719 13.441406 4.277344 Z M 13.441406 4.277344 " fill-opacity="1" fill-rule="nonzero"/></g><path fill="#0fd646" d="M 6.816406 10.511719 C 6.722656 10.316406 6.644531 10.128906 6.542969 9.953125 C 6.175781 9.292969 5.808594 8.632812 5.417969 7.984375 C 5.199219 7.628906 4.921875 7.3125 4.582031 7.054688 C 4.3125 6.851562 4.019531 6.714844 3.648438 6.816406 C 3.664062 6.777344 3.671875 6.746094 3.6875 6.71875 C 3.859375 6.40625 4.050781 6.113281 4.335938 5.886719 C 4.71875 5.582031 5.125 5.539062 5.574219 5.738281 C 6.039062 5.949219 6.386719 6.292969 6.707031 6.667969 C 6.964844 6.96875 7.199219 7.289062 7.449219 7.605469 C 7.453125 7.605469 7.46875 7.597656 7.476562 7.585938 C 7.964844 6.941406 8.445312 6.289062 8.945312 5.648438 C 10.039062 4.257812 11.167969 2.898438 12.425781 1.652344 C 12.863281 1.21875 13.339844 0.824219 13.820312 0.4375 C 14.003906 0.289062 14.238281 0.1875 14.464844 0.105469 C 14.714844 0.0078125 14.875 0.0859375 14.996094 0.308594 C 14.96875 0.339844 14.9375 0.378906 14.902344 0.414062 C 13.570312 1.789062 12.375 3.28125 11.296875 4.867188 C 10.296875 6.335938 9.394531 7.863281 8.566406 9.4375 C 8.496094 9.570312 8.40625 9.664062 8.269531 9.734375 C 7.785156 9.984375 7.304688 10.246094 6.816406 10.511719 Z M 6.816406 10.511719 " fill-opacity="1" fill-rule="nonzero"/></svg>